<svg xmlns="http://www.w3.org/2000/svg" viewBox="0 0 512 512" role="img" aria-label="TOPAC MECÂNICOS"><defs><linearGradient id="bg" x1="0" y1="0" x2="1" y2="1"><stop stop-color="#071a46"/><stop offset=".5" stop-color="#030818"/><stop offset="1" stop-color="#12052a"/></linearGradient><linearGradient id="metal" x1="0" y1="0" x2="0" y2="1"><stop stop-color="#fff"/><stop offset=".45" stop-color="#cbd5e1"/><stop offset="1" stop-color="#94a3b8"/></linearGradient><linearGradient id="cyan" x1="0" y1="0" x2="1" y2="1"><stop stop-color="#0ea5e9"/><stop offset=".5" stop-color="#2563eb"/><stop offset="1" stop-color="#a855f7"/></linearGradient><filter id="glow"><feGaussianBlur stdDeviation="5" result="b"/><feMerge><feMergeNode in="b"/><feMergeNode in="SourceGraphic"/></feMerge></filter></defs><rect x="12" y="12" width="488" height="488" rx="108" fill="url(#bg)"/><rect x="14" y="14" width="484" height="484" rx="106" fill="none" stroke="url(#cyan)" stroke-width="5"/><g opacity=".95" filter="url(#glow)"><path d="M256 63l24 17 30-7 14 29 30 5 2 32 27 16-11 30 18 25-23 23 7 31-29 13-8 30-32-1-18 26-29-13-27 16-22-23-31 7-11-29-31-5 2-32-26-17 11-29-19-25 24-23-7-31 29-13 8-30 32 1 18-26 29 13z" fill="#0d2a68" stroke="url(#cyan)" stroke-width="4"/><path d="M151 115h210c12 0 19 12 13 22-13 23-36 40-63 50l-30 12v116c0 14-11 25-25 25h-28V200h-77c-15 0-26-12-26-26v-33c0-15 11-26 26-26z" fill="url(#metal)"/><path d="M191 297c55 0 103-26 135-67l26 20c-40 52-101 82-168 82z" fill="url(#cyan)"/><path d="M327 214l36-21 23 16-9 40-28 17-27-18z" fill="url(#metal)"/></g><text x="256" y="402" text-anchor="middle" fill="url(#metal)" font-family="Arial,Helvetica,sans-serif" font-size="55" font-weight="900" letter-spacing="8">TOPAC</text><text x="256" y="448" text-anchor="middle" fill="#22d3ee" font-family="Arial,Helvetica,sans-serif" font-size="34" font-weight="900" letter-spacing="4">MECÂNICOS</text><text x="256" y="479" text-anchor="middle" fill="#94a3b8" font-family="Arial,Helvetica,sans-serif" font-size="17" font-weight="700" letter-spacing="6">APP OPERACIONAL</text></svg>